<?xml version="1.0" standalone="no"?>
<!DOCTYPE svg PUBLIC "-//W3C//DTD SVG 20010904//EN"
 "http://www.w3.org/TR/2001/REC-SVG-20010904/DTD/svg10.dtd">
<svg version="1.0" xmlns="http://www.w3.org/2000/svg"
 width="329.000000pt" height="172.000000pt" viewBox="0 0 329.000000 172.000000"
 preserveAspectRatio="xMidYMid meet">
<metadata>
Created by potrace 1.15, written by Peter Selinger 2001-2017
</metadata>
<g transform="translate(0.000000,172.000000) scale(0.100000,-0.100000)"
fill="#000000" stroke="none">
<path d="M0 860 l0 -860 1645 0 1645 0 0 860 0 860 -1645 0 -1645 0 0 -860z
m2920 15 l0 -575 -141 0 c-172 0 -199 10 -199 75 0 56 31 75 124 75 l66 0 0
425 0 425 -66 0 c-93 0 -124 19 -124 75 0 65 25 74 198 75 l142 0 0 -575z
m-2247 554 c29 -16 37 -28 37 -64 0 -56 -31 -75 -124 -75 l-66 0 0 -425 0
-425 66 0 c93 0 124 -19 124 -75 0 -65 -27 -75 -194 -75 l-136 0 0 575 0 575
136 0 c83 0 144 -4 157 -11z m593 -9 c99 -48 117 -160 38 -230 l-36 -31 49
-52 c26 -29 55 -54 63 -56 20 -4 50 -31 50 -44 0 -24 -34 -47 -70 -47 -33 0
-42 6 -84 59 -64 79 -111 111 -164 111 l-42 0 0 -40 c0 -38 2 -40 29 -40 51 0
77 -43 45 -74 -20 -20 -203 -23 -222 -4 -29 29 -7 78 35 78 23 0 23 0 23 150
0 150 0 150 -23 150 -29 0 -47 18 -47 45 0 41 17 45 169 45 125 0 150 -3 187
-20z m567 -13 c101 -77 85 -196 -35 -258 -26 -13 -58 -19 -108 -19 l-70 0 0
-40 0 -40 58 0 c62 0 82 -11 82 -45 0 -40 -18 -45 -150 -45 -132 0 -150 5
-150 45 0 27 18 45 47 45 23 0 23 0 23 150 0 150 0 150 -23 150 -29 0 -47 18
-47 45 0 43 16 46 181 43 153 -3 156 -3 192 -31z m434 8 c81 -41 123 -114 123
-214 0 -87 -9 -116 -48 -162 -58 -67 -94 -79 -254 -79 -130 0 -138 1 -149 21
-13 26 2 69 26 69 13 0 15 22 15 150 0 128 -2 150 -15 150 -24 0 -39 43 -26
69 11 20 19 21 144 21 122 0 137 -2 184 -25z m-991 -651 c57 -34 108 -112 117
-174 19 -146 -82 -278 -222 -288 -141 -10 -251 99 -251 248 0 109 53 191 152
236 54 24 146 14 204 -22z m981 17 c26 -16 32 -17 37 -5 7 17 38 18 54 2 18
-18 16 -142 -3 -158 -18 -15 -65 -5 -65 15 0 7 -11 27 -24 42 -21 24 -31 28
-79 28 -40 0 -61 -5 -76 -19 -47 -43 -16 -78 89 -96 91 -16 146 -42 170 -82
43 -71 17 -143 -67 -185 -44 -21 -63 -25 -115 -21 -35 2 -77 11 -95 20 -27 14
-34 14 -44 2 -16 -20 -47 -17 -59 5 -14 28 -13 114 3 135 19 26 57 17 77 -18
10 -18 31 -35 55 -43 71 -25 175 2 175 46 0 29 -22 41 -107 58 -97 19 -148 45
-174 86 -41 65 -5 157 76 193 46 20 134 18 172 -5z m-424 -24 c101 -77 85
-196 -35 -258 -26 -13 -58 -19 -108 -19 l-70 0 0 -40 0 -40 58 0 c62 0 82 -11
82 -45 0 -40 -18 -45 -150 -45 -132 0 -150 5 -150 45 0 27 18 45 47 45 23 0
23 0 23 150 0 150 0 150 -23 150 -29 0 -47 18 -47 45 0 43 16 46 181 43 153
-3 156 -3 192 -31z"/>
<path d="M1070 1284 l0 -67 63 5 c182 15 178 128 -4 128 l-59 0 0 -66z"/>
<path d="M1620 1284 l0 -67 70 5 c85 6 120 26 120 69 0 25 -6 32 -35 45 -19 7
-62 14 -95 14 l-60 0 0 -66z"/>
<path d="M2070 1200 l0 -150 54 0 c80 0 114 10 147 42 26 27 29 36 29 96 0
116 -48 162 -170 162 l-60 0 0 -150z"/>
<path d="M1112 703 c-12 -2 -37 -19 -56 -36 -140 -133 30 -354 188 -244 31 22
66 88 66 127 0 39 -35 105 -67 128 -31 22 -91 34 -131 25z"/>
<path d="M1620 634 l0 -67 70 5 c85 6 120 26 120 69 0 25 -6 32 -35 45 -19 7
-62 14 -95 14 l-60 0 0 -66z"/>
</g>
</svg>
